<?xml version="1.0" encoding="iso-8859-1"?>
<!-- Generator: Adobe Illustrator 18.0.0, SVG Export Plug-In . SVG Version: 6.00 Build 0)  -->
<!DOCTYPE svg PUBLIC "-//W3C//DTD SVG 1.1//EN" "http://www.w3.org/Graphics/SVG/1.1/DTD/svg11.dtd">
<svg version="1.1" id="Capa_1" xmlns="http://www.w3.org/2000/svg" xmlns:xlink="http://www.w3.org/1999/xlink" x="0px" y="0px"
	 viewBox="0 0 457.134 457.134" style="enable-background:new 0 0 457.134 457.134;" xml:space="preserve">
<g>
	<path d="M367.37,279.117c0,6.681-5.416,12.098-12.098,12.098h-50.701c-6.681,0-12.098-5.416-12.098-12.098v-23.081H164.66v23.081
		c0,6.681-5.416,12.098-12.098,12.098h-50.701c-6.681,0-12.098-5.416-12.098-12.098v-23.081H25.166v180.48
		c0,11.387,9.231,20.618,20.618,20.618h365.565c11.387,0,20.618-9.231,20.618-20.618v-180.48H367.37V279.117z"/>
	<path d="M435.757,85.818H317.222V20c0-11.045-8.954-20-20-20h-137.31c-11.046,0-20,8.955-20,20v65.818H21.377
		c-11.387,0-20.618,9.231-20.618,20.618v114.989h89.006v-22.514c0-6.681,5.416-12.097,12.098-12.097h50.701
		c6.681,0,12.098,5.416,12.098,12.097v22.514h127.814v-22.514c0-6.681,5.416-12.097,12.098-12.097h50.701
		c6.681,0,12.098,5.416,12.098,12.097v22.514h89.005V106.436C456.376,95.049,447.145,85.818,435.757,85.818z M179.912,40h97.31
		v45.818h-97.31V40z"/>
</g>
<g>
</g>
<g>
</g>
<g>
</g>
<g>
</g>
<g>
</g>
<g>
</g>
<g>
</g>
<g>
</g>
<g>
</g>
<g>
</g>
<g>
</g>
<g>
</g>
<g>
</g>
<g>
</g>
<g>
</g>
</svg>
